<svg xmlns="http://www.w3.org/2000/svg" width="249.614" height="183.058" viewBox="0 0 249.614 183.058"><defs><style>.a{fill:#f2f2f2;}.b{fill:rgba(155,157,177,0.38);}.c{fill:#00c45b;}.d{fill:#3f3d56;}.e{fill:#2f2e41;}.f{fill:#ffb9b9;}.g{opacity:0.1;}.h{fill:#575a89;}</style></defs><g transform="translate(-3.722)"><circle class="a" cx="5.232" cy="5.232" r="5.232" transform="translate(60.762 88.124)"/><circle class="a" cx="3.243" cy="3.243" r="3.243" transform="translate(44.845 150.369)"/><rect class="a" width="39.792" height="0.568" transform="translate(107.749 6.111)"/><rect class="a" width="0.568" height="5.258" transform="translate(118.55 0.995)"/><rect class="a" width="0.568" height="5.258" transform="translate(135.888 0.995)"/><rect class="a" width="39.792" height="0.568" transform="translate(171.984 143.676)"/><rect class="a" width="0.568" height="5.258" transform="translate(182.785 138.56)"/><rect class="a" width="0.568" height="5.258" transform="translate(200.123 138.56)"/><rect class="a" width="39.792" height="0.568" transform="translate(173.974 56.987)"/><rect class="a" width="0.568" height="5.258" transform="translate(184.775 51.871)"/><rect class="a" width="0.568" height="5.258" transform="translate(202.112 51.871)"/><rect class="a" width="39.792" height="0.568" transform="translate(173.974 36.523)"/><rect class="a" width="0.568" height="5.258" transform="translate(184.775 31.407)"/><rect class="a" width="0.568" height="5.258" transform="translate(202.112 31.407)"/><rect class="a" width="39.792" height="0.568" transform="translate(86.716 39.365)"/><rect class="a" width="0.568" height="5.258" transform="translate(97.517 34.249)"/><rect class="a" width="0.568" height="5.258" transform="translate(114.855 34.249)"/><rect class="a" width="39.792" height="0.568" transform="translate(57.725 26.007)"/><rect class="a" width="0.568" height="5.258" transform="translate(68.526 20.891)"/><rect class="a" width="0.568" height="5.258" transform="translate(85.864 20.891)"/><rect class="a" width="39.792" height="0.568" transform="translate(39.819 78.589)"/><rect class="a" width="0.568" height="5.258" transform="translate(50.62 73.472)"/><rect class="a" width="0.568" height="5.258" transform="translate(67.958 73.472)"/><rect class="a" width="39.792" height="0.568" transform="translate(19.923 136.571)"/><rect class="a" width="0.568" height="5.258" transform="translate(30.724 131.455)"/><rect class="a" width="0.568" height="5.258" transform="translate(48.062 131.455)"/><rect class="a" width="39.792" height="0.568" transform="translate(208.081 112.696)"/><rect class="a" width="0.568" height="5.258" transform="translate(218.882 107.58)"/><rect class="a" width="0.568" height="5.258" transform="translate(236.219 107.58)"/><rect class="a" width="39.792" height="0.568" transform="translate(196.428 76.315)"/><rect class="a" width="0.568" height="5.258" transform="translate(224.85 76.741)"/><rect class="a" width="0.568" height="5.258" transform="translate(207.513 76.741)"/><rect class="a" width="39.792" height="0.568" transform="translate(3.722 33.681)"/><rect class="a" width="0.568" height="5.258" transform="translate(32.145 34.107)"/><rect class="a" width="0.568" height="5.258" transform="translate(14.807 34.107)"/><rect class="a" width="39.792" height="0.568" transform="translate(6.28 108.148)"/><rect class="a" width="0.568" height="5.258" transform="translate(34.703 108.574)"/><rect class="a" width="0.568" height="5.258" transform="translate(17.365 108.574)"/><rect class="a" width="39.792" height="0.568" transform="translate(131.624 15.206)"/><rect class="a" width="0.568" height="5.258" transform="translate(160.047 15.632)"/><rect class="a" width="0.568" height="5.258" transform="translate(142.709 15.632)"/><rect class="a" width="39.792" height="0.568" transform="translate(19.923 54.714)"/><rect class="a" width="0.568" height="5.258" transform="translate(30.724 49.597)"/><rect class="a" width="0.568" height="5.258" transform="translate(48.062 49.597)"/><path class="b" d="M479.325,388.887H414.238a1.99,1.99,0,1,1,0-3.979h65.088a1.99,1.99,0,0,1,0,3.979Z" transform="translate(-334.343 -311.72)"/><path class="b" d="M479.325,460.887H414.238a1.99,1.99,0,1,1,0-3.979h65.088a1.99,1.99,0,0,1,0,3.979Z" transform="translate(-334.343 -363.255)"/><path class="b" d="M479.325,532.887H414.238a1.99,1.99,0,1,1,0-3.979h65.088a1.99,1.99,0,0,1,0,3.979Z" transform="translate(-334.343 -414.791)"/><path class="b" d="M479.325,604.887H414.238a1.99,1.99,0,1,1,0-3.979h65.088a1.99,1.99,0,0,1,0,3.979Z" transform="translate(-334.343 -466.327)"/><path class="b" d="M479.325,676.887H414.238a1.99,1.99,0,1,1,0-3.979h65.088a1.99,1.99,0,0,1,0,3.979Z" transform="translate(-334.343 -517.863)"/><path class="c" d="M467.241,388.887h-54a1.99,1.99,0,1,1,0-3.979h54a1.99,1.99,0,0,1,0,3.979Z" transform="translate(-333.627 -311.72)"/><path class="c" d="M450.471,460.887H413.238a1.99,1.99,0,0,1,0-3.979h37.234a1.99,1.99,0,0,1,0,3.979Z" transform="translate(-333.627 -363.255)"/><path class="c" d="M430.008,532.887H413.239a1.99,1.99,0,0,1,0-3.979h16.769a1.99,1.99,0,1,1,0,3.979Z" transform="translate(-333.628 -414.791)"/><path class="c" d="M472.357,604.887H413.238a1.99,1.99,0,1,1,0-3.979h59.119a1.99,1.99,0,0,1,0,3.979Z" transform="translate(-333.627 -466.327)"/><path class="c" d="M459.282,676.887H413.238a1.99,1.99,0,1,1,0-3.979h46.045a1.99,1.99,0,1,1,0,3.979Z" transform="translate(-333.627 -517.863)"/><rect class="c" width="0.568" height="3.979" transform="translate(171.416 73.188)"/><path class="c" d="M752.522,388.456a2.274,2.274,0,1,1,2.274-2.274A2.274,2.274,0,0,1,752.522,388.456Zm0-3.979a1.705,1.705,0,1,0,1.705,1.705A1.705,1.705,0,0,0,752.522,384.476Z" transform="translate(-576.274 -311.004)"/><rect class="c" width="0.568" height="3.979" transform="translate(171.416 93.653)"/><path class="c" d="M752.522,460.456a2.274,2.274,0,1,1,2.274-2.274A2.274,2.274,0,0,1,752.522,460.456Zm0-3.979a1.705,1.705,0,1,0,1.705,1.705,1.705,1.705,0,0,0-1.705-1.705Z" transform="translate(-576.274 -362.54)"/><rect class="c" width="0.568" height="3.979" transform="translate(171.416 114.117)"/><path class="c" d="M752.522,532.456a2.274,2.274,0,1,1,2.274-2.274A2.274,2.274,0,0,1,752.522,532.456Zm0-3.979a1.705,1.705,0,1,0,1.705,1.705A1.705,1.705,0,0,0,752.522,528.477Z" transform="translate(-576.274 -414.075)"/><rect class="c" width="0.568" height="3.979" transform="translate(171.416 134.581)"/><path class="c" d="M752.522,604.456a2.274,2.274,0,1,1,2.274-2.274A2.274,2.274,0,0,1,752.522,604.456Zm0-3.979a1.705,1.705,0,1,0,1.705,1.705A1.705,1.705,0,0,0,752.522,600.477Z" transform="translate(-576.274 -465.611)"/><rect class="c" width="0.568" height="3.979" transform="translate(171.416 155.045)"/><path class="c" d="M752.522,676.456a2.274,2.274,0,1,1,2.274-2.274,2.274,2.274,0,0,1-2.274,2.274Zm0-3.979a1.705,1.705,0,1,0,1.705,1.705A1.705,1.705,0,0,0,752.522,672.477Z" transform="translate(-576.274 -517.147)"/><circle class="c" cx="1.137" cy="1.137" r="1.137" transform="translate(175.111 74.041)"/><circle class="c" cx="1.137" cy="1.137" r="1.137" transform="translate(175.111 135.434)"/><circle class="c" cx="1.137" cy="1.137" r="1.137" transform="translate(175.111 155.898)"/><circle class="d" cx="1.99" cy="1.99" r="1.99" transform="translate(126.082 52.582)"/><circle class="d" cx="1.99" cy="1.99" r="1.99" transform="translate(126.082)"/><rect class="d" width="0.568" height="52.582" transform="translate(127.787 1.99)"/><path class="e" d="M927.809,504.344v7.042a169.311,169.311,0,0,1,1.7,21.255c0,9.911-2.738,32.992-2.738,32.992s-5.477,1.956-5.868-1.043-1.434-18.908-1.434-21.255-4.564-20.212-4.564-20.212l-2.869,19.821s.913,23.472,0,24.124-5.346,1.826-5.868.652-3.26-26.341-3.26-26.341-2.217-32.861-.913-34.817,2.478-3.521,2.478-3.521S923.114,498.476,927.809,504.344Z" transform="translate(-684.593 -395.065)"/><path class="e" d="M973.625,724.767l.327,2.126a20.932,20.932,0,0,1,.214,2.188c.051,1.068.229,2.713.837,2.974.913.391,6.837,5.388,2.665,5.649s-6.26.711-7.5-.248c-1.461-1.135.194-.621-.458-.621s-1.434,0-1.7-1.043a6.614,6.614,0,0,1,.391-2.869v-8.155Z" transform="translate(-732.104 -554.982)"/><path class="e" d="M905.507,724.408l-.327,2.126a20.935,20.935,0,0,0-.214,2.188c-.051,1.068-.229,2.713-.837,2.974-.913.391-6.837,5.388-2.665,5.649s6.26.711,7.5-.248c1.461-1.134-.194-.621.458-.621s1.434,0,1.7-1.043a6.615,6.615,0,0,0-.391-2.869v-8.155Z" transform="translate(-683.457 -554.725)"/><path class="f" d="M913.863,312.77s2.217,5.477,3.782,6.39.782,5.086.782,5.086l-3.912,5.477h-3.13L907.6,323.2s-.261-4.3-1.043-5.346S913.863,312.77,913.863,312.77Z" transform="translate(-688.12 -260.085)"/><path class="g" d="M913.863,312.77s2.217,5.477,3.782,6.39.782,5.086.782,5.086l-3.912,5.477h-3.13L907.6,323.2s-.261-4.3-1.043-5.346S913.863,312.77,913.863,312.77Z" transform="translate(-688.12 -260.085)"/><path class="c" d="M913.973,352.226l5.868,1.3,4.3,43.293s-2.347.391-4.694,3.521-5.216,2.608-6.651,1.826-7.172-3-7.3-3.912.261-16.952.261-16.952l-3.651-25.037,1.826-2.738h3.26l2.608,2.217Z" transform="translate(-684.97 -288.327)"/><circle class="f" cx="6.781" cy="6.781" r="6.781" transform="translate(213.354 45.904)"/><path class="h" d="M941.677,344.427s12.779,1.3,13.953,4.042-.782,14.866-.782,14.866,4.695,10.563,4.564,13.04,4.434,19.43-.522,17.474-3.39-7.042-5.868-3.39-3.521,3.13-3.521,3.13-2.478,4.042-3.26,3.651-1.3-3.39.391-4.825,1.434-3.912-1.826-8.607-6.65-29.34-4.694-33.122S941.677,344.427,941.677,344.427Z" transform="translate(-711.762 -282.744)"/><path class="f" d="M844.135,386.957l-2.217,2.087-2.738-1.826,1.174-2.739Z" transform="translate(-600.918 -275.2)"/><path class="h" d="M889.077,352.226s-9.911,3.651-9.911,7.563,6,20.995,6,20.995a46.562,46.562,0,0,1-.261,5.477c-.261,1.043-4.364,10.142-.782,10.954,2.235.507,4.072,1.838,4.238,3.716.2,2.231-1.511,5.047-1.369,5.542.261.913,1.826,2.217,1.7,1.565s1.043-10.041,2.869-14.214-.782-32.209-1.3-35.86A40.351,40.351,0,0,0,889.077,352.226Z" transform="translate(-668.551 -288.327)"/><path class="f" d="M758.432,386.039l2.347,5.608,1.76-3.586-2.021-4.5Z" transform="translate(-543.122 -274.543)"/><path class="c" d="M934.812,327.551a12.148,12.148,0,0,0,3.445.885c1.3,0,6.651,2.738,4.825,4.434s-4.564,2.086-5.868,4.564-1.956,2.869-1.956,2.869l-2.322-3.119s3.234-3.662,3.1-4.836A48.071,48.071,0,0,0,934.812,327.551Z" transform="translate(-707.038 -270.665)"/><path class="c" d="M898.863,338.582s-1.6.618-1.995,1.661-2.869,3-1.826,3.521,5.607,2.608,6.52,3,2.614-1.11,2.614-1.11-2.288-1.3-2.288-2.215S898.863,338.582,898.863,338.582Z" transform="translate(-679.732 -278.561)"/><path class="h" d="M874.124,372.413l-3.13.782s-4.3,19.3-3,24.124,7.433,19.3,7.433,19.3l3.912-4.564s-1.706-10.379-2.679-11.057-.32-2.113-.32-2.5.391-.13-.522-1.043,3.39-6,2.217-7.433S874.124,372.413,874.124,372.413Z" transform="translate(-660.378 -302.776)"/><path class="g" d="M979.8,367.133l-1.891-7.107s5.086,3.651,6.129,9,5.086,16.039,2.478,20.734-7.172,18.256-8.737,18-5.346-3.521-5.477-4.042,6.781-12.518,5.738-13.431-.782-3.26,0-3.782,1.7-3,1.043-2.869-2.608-1.174-2.217-2.608-1.956-11.084-1.956-11.084Z" transform="translate(-735.21 -293.91)"/><path class="h" d="M980.208,356.814l1.826.522s5.086,3.651,6.129,9,5.086,16.039,2.478,20.734-7.172,18.256-8.737,18-5.346-3.521-5.477-4.042,6.781-12.519,5.738-13.431-.782-3.26,0-3.782,1.7-3,1.043-2.869-2.608-1.174-2.217-2.608-1.956-11.084-1.956-11.084Z" transform="translate(-738.165 -291.611)"/><path class="e" d="M892.933,280.9l1.272-.462a9.043,9.043,0,0,0-6.359-2.428l1.041-1.041a4.72,4.72,0,0,0-4.856,1.5,20.658,20.658,0,0,0-3.5,4.467h-1.362l.568,1.137-1.99,1.137,2.042-.2a5.737,5.737,0,0,0,.193,2.944l.462,1.272a36.675,36.675,0,0,0,1.85-4.162v1.156s1.272-1.041,1.272-1.734l.694.809.347-1.272,4.278,1.272-.694-1.041,2.659.347-1.041-1.272s3.006,1.5,3.122,2.775a6.651,6.651,0,0,0,1.619,2.89l.694-1.156S896.286,282.634,892.933,280.9Z" transform="translate(-667.536 -234.336)"/><ellipse class="f" cx="0.995" cy="1.563" rx="0.995" ry="1.563" transform="translate(224.14 50.308)"/></g></svg>