<svg xmlns="http://www.w3.org/2000/svg" width="22" height="22" viewBox="0 0 22 22"><defs><style>.a{fill:#fff;}</style></defs><path class="a" d="M13,2A11,11,0,1,1,2,13,11,11,0,0,1,13,2m0,2.2A8.8,8.8,0,0,0,4.2,13a8.663,8.663,0,0,0,2.97,6.6A8.532,8.532,0,0,1,13,17.4a8.735,8.735,0,0,1,5.83,2.2A8.663,8.663,0,0,0,21.8,13,8.8,8.8,0,0,0,13,4.2M10.8,6.279a1.124,1.124,0,0,1,.99.715l1.419,3.553.11.253a2.3,2.3,0,0,1,1.727,1.386,2.2,2.2,0,0,1-4.092,1.628,2.25,2.25,0,0,1,.319-2.178l-.11-.286L9.744,7.819l-.011-.033a1.112,1.112,0,0,1,.616-1.43,1.215,1.215,0,0,1,.451-.077h0m4.4.121a1.1,1.1,0,1,1-1.1,1.1,1.1,1.1,0,0,1,1.1-1.1m3.3,3.3a1.1,1.1,0,1,1-1.1,1.1,1.1,1.1,0,0,1,1.1-1.1m-11,0a1.1,1.1,0,1,1-1.1,1.1A1.1,1.1,0,0,1,7.5,9.7Z" transform="translate(-2 -2)"/></svg>