<svg xmlns="http://www.w3.org/2000/svg" width="22.838" height="22.838" viewBox="0 0 22.838 22.838"><defs><style>.a{fill:#00c45b;}</style></defs><path class="a" d="M8.623,2h9.592a6.628,6.628,0,0,1,6.623,6.623v9.592a6.623,6.623,0,0,1-6.623,6.623H8.623A6.628,6.628,0,0,1,2,18.215V8.623A6.623,6.623,0,0,1,8.623,2M8.395,4.284A4.111,4.111,0,0,0,4.284,8.395V18.443a4.108,4.108,0,0,0,4.111,4.111H18.443a4.111,4.111,0,0,0,4.111-4.111V8.395a4.108,4.108,0,0,0-4.111-4.111H8.395M19.414,6a1.427,1.427,0,1,1-1.427,1.427A1.427,1.427,0,0,1,19.414,6M13.419,7.709a5.709,5.709,0,1,1-5.709,5.709,5.709,5.709,0,0,1,5.709-5.709m0,2.284a3.426,3.426,0,1,0,3.426,3.426,3.426,3.426,0,0,0-3.426-3.426Z" transform="translate(-2 -2)"/></svg>