<svg xmlns="http://www.w3.org/2000/svg" width="312.451" height="195.286" viewBox="0 0 312.451 195.286"><defs><style>.a{fill:#f2f2f2;}.b{fill:#3f3d56;}.c{fill:#00c45b;}.d{fill:#2f2e41;}.e{fill:#575a89;}.f{opacity:0.1;}.g{fill:#fbbebe;}.h{fill:#f1f1f1;}</style></defs><g transform="translate(0.001 0)"><path class="a" d="M675.913,174.079C664.448,129,624.833,96.453,578.334,95.147c-24.583-.69-50.451,7.463-69.285,35.993-33.667,51,2.069,86.244,26.983,102.991a155.9,155.9,0,0,1,32.223,28.962c16.829,19.97,49.2,44.786,87.761,5.9C683.963,240.815,683.55,204.108,675.913,174.079Z" transform="translate(-367.921 -95.108)"/><path class="b" d="M186.641,501.5c-.309-.458-.613-.927-.9-1.4l.469-.29c.286.463.586.926.891,1.378Z" transform="translate(-143.61 -388.349)"/><path class="b" d="M168.015,332.989c-.511-1-.986-2.038-1.411-3.079l.51-.209c.42,1.026.888,2.048,1.392,3.037Zm-2.562-6.264c-.338-1.072-.635-2.172-.883-3.269l.537-.122c.245,1.082.538,2.167.871,3.225Zm-1.492-6.6c-.156-1.112-.268-2.245-.333-3.369l.55-.032c.064,1.109.174,2.228.328,3.325Zm.16-6.742-.551-.013c.026-1.126.1-2.263.217-3.378l.548.058c-.116,1.1-.188,2.222-.215,3.333Zm.7-6.638-.541-.1c.21-1.1.468-2.214.769-3.3l.531.147c-.3,1.069-.552,2.163-.758,3.253Zm1.784-6.432-.517-.191c.389-1.055.828-2.107,1.3-3.127l.5.233c-.47,1.006-.9,2.044-1.287,3.085Zm75.439-1.7c-.431-1.021-.91-2.038-1.424-3.022l.488-.255c.522,1,1.007,2.028,1.444,3.063Zm-72.615-4.35-.478-.273c.558-.976,1.164-1.941,1.8-2.869l.454.312C170.579,292.345,169.981,293.3,169.431,294.26Zm69.522-1.565c-.593-.937-1.233-1.861-1.9-2.747l.44-.332c.678.9,1.326,1.834,1.927,2.784Zm-65.742-3.94-.427-.348c.711-.872,1.466-1.725,2.245-2.535l.4.382C174.657,287.052,173.911,287.894,173.21,288.755Zm61.72-1.389c-.739-.828-1.521-1.636-2.325-2.4l.38-.4c.815.775,1.607,1.593,2.356,2.432Zm-57.093-3.425-.364-.413c.843-.744,1.727-1.462,2.628-2.135l.329.441C179.542,282.5,178.669,283.207,177.838,283.941Zm52.255-1.177c-.864-.7-1.768-1.365-2.685-1.988l.309-.456c.93.632,1.846,1.309,2.722,2.015Zm-46.905-2.816-.292-.467c.954-.6,1.943-1.16,2.941-1.675l.253.49C185.1,278.8,184.128,279.36,183.187,279.949Zm41.38-.934c-.968-.546-1.969-1.058-2.975-1.521l.23-.5c1.02.469,2.035.988,3.016,1.542Zm-35.451-2.126-.211-.509c1.038-.431,2.107-.824,3.176-1.167l.168.524C191.194,276.076,190.14,276.463,189.116,276.889Zm29.384-.664c-1.042-.378-2.114-.718-3.186-1.009l.144-.531c1.086.295,2.172.639,3.229,1.022Zm-23.032-1.376-.124-.537c1.094-.254,2.213-.465,3.327-.627l.08.545c-1.1.161-2.2.369-3.282.619Zm16.588-.374c-1.089-.2-2.2-.359-3.308-.469l.055-.548c1.121.112,2.249.272,3.353.476Zm-9.983-.591-.035-.55c1.12-.071,2.263-.1,3.385-.076l-.01.551c-1.108-.02-2.234,0-3.34.074Z" transform="translate(-127.548 -224.187)"/><path class="b" d="M453.268,377.951c-.148-.524-.308-1.053-.477-1.57l.524-.171c.171.525.334,1.061.483,1.592Z" transform="translate(-337.111 -298.789)"/><path class="b" d="M440.878,266.158h-.551c0-.551.01-1.111.029-1.662l.551.019C440.887,265.06,440.878,265.613,440.878,266.158Z" transform="translate(-328.08 -217.843)"/><path class="b" d="M441.838,142.293l-.548-.058c.118-1.109.278-2.228.475-3.324l.542.1C442.112,140.091,441.954,141.2,441.838,142.293Zm1.173-6.528-.534-.136c.276-1.081.594-2.165.947-3.222l.523.174c-.349,1.044-.664,2.115-.936,3.184Zm87.849-5.812c-.412-1.022-.866-2.042-1.35-3.031l.495-.242c.49,1,.949,2.033,1.366,3.067Zm-85.748-.483-.509-.212c.428-1.029.9-2.057,1.4-3.054l.492.248c-.5.986-.962,2-1.385,3.018ZM527.944,124c-.554-.952-1.149-1.9-1.77-2.807l.455-.31c.629.922,1.231,1.877,1.791,2.84Zm-79.849-.454-.473-.282c.571-.956,1.185-1.906,1.824-2.821l.452.315C449.265,121.659,448.659,122.6,448.095,123.542Zm76.112-5.027c-.685-.865-1.409-1.715-2.152-2.527l.406-.372c.752.822,1.485,1.682,2.178,2.557ZM451.9,118.1l-.428-.347c.7-.867,1.445-1.718,2.207-2.532l.4.377C453.323,116.4,452.589,117.246,451.9,118.1Zm67.833-4.481c-.8-.758-1.638-1.5-2.49-2.2l.349-.426c.862.707,1.709,1.454,2.519,2.221Zm-63.3-.361-.374-.4c.818-.757,1.674-1.495,2.544-2.192l.345.43c-.86.689-1.706,1.418-2.514,2.167Zm58.168-3.847c-.9-.637-1.834-1.249-2.777-1.819l.285-.471c.954.577,1.9,1.2,2.81,1.84Zm-52.993-.3-.313-.453c.917-.633,1.869-1.241,2.829-1.807l.28.474c-.949.559-1.889,1.16-2.8,1.786Zm47.316-3.132c-.982-.5-1.994-.973-3.009-1.4l.215-.507c1.027.434,2.051.912,3.045,1.419Zm-41.6-.235-.245-.493c1-.5,2.026-.961,3.057-1.383l.209.51c-1.018.418-2.035.877-3.021,1.367Zm35.494-2.35c-1.042-.355-2.112-.676-3.179-.955l.139-.533c1.08.282,2.163.608,3.217.967Zm-29.362-.163-.172-.523c1.059-.347,2.144-.66,3.227-.93l.133.534c-1.069.267-2.142.576-3.188.919Zm22.944-1.515c-1.083-.2-2.187-.365-3.282-.488l.061-.547c1.108.124,2.226.29,3.322.494Zm-16.509-.091-.094-.543c1.1-.191,2.216-.345,3.326-.457l.055.548c-1.1.111-2.2.263-3.287.452Zm9.918-.65c-1.1-.045-2.224-.051-3.319-.018l-.017-.551c1.108-.033,2.242-.027,3.358.018Z" transform="translate(-328.777 -98.933)"/><path class="b" d="M771.106,220.319c-.147-.524-.307-1.053-.473-1.573l.524-.168c.168.526.33,1.061.479,1.592Z" transform="translate(-567.413 -184.572)"/><ellipse class="c" cx="9.175" cy="0.688" rx="9.175" ry="0.688" transform="translate(33.534 118.61)"/><ellipse class="c" cx="9.175" cy="0.688" rx="9.175" ry="0.688" transform="translate(106.704 85.351)"/><ellipse class="c" cx="9.175" cy="0.688" rx="9.175" ry="0.688" transform="translate(197.077 50.716)"/><rect class="b" width="39.017" height="0.551" transform="translate(175.029 76.733) rotate(-45)"/><rect class="b" width="46.333" height="0.551" transform="translate(120.696 80.259)"/><rect class="b" width="36.649" height="0.551" transform="translate(86.325 109.929) rotate(-45)"/><rect class="b" width="30.965" height="0.551" transform="translate(47.526 113.518)"/><rect class="b" width="43.516" height="0.551" transform="translate(8.338 147.776) rotate(-45)"/><path class="b" d="M174.45,499.966a5.092,5.092,0,1,1,5.092-5.092A5.092,5.092,0,0,1,174.45,499.966Zm0-9.634a4.541,4.541,0,1,0,4.541,4.541,4.541,4.541,0,0,0-4.541-4.541Z" transform="translate(-131.741 -381.081)"/><path class="b" d="M321.857,499.966a5.092,5.092,0,1,1,5.092-5.092A5.092,5.092,0,0,1,321.857,499.966Zm0-9.634a4.541,4.541,0,1,0,4.541,4.541,4.541,4.541,0,0,0-4.541-4.541Z" transform="translate(-238.549 -381.081)"/><path class="b" d="M440.116,379.208a5.092,5.092,0,1,1,5.092-5.092A5.092,5.092,0,0,1,440.116,379.208Zm0-9.634a4.541,4.541,0,1,0,4.541,4.541A4.541,4.541,0,0,0,440.116,369.575Z" transform="translate(-324.238 -293.582)"/><path class="b" d="M643.322,379.208a5.092,5.092,0,1,1,5.092-5.092A5.092,5.092,0,0,1,643.322,379.208Zm0-9.634a4.541,4.541,0,1,0,4.542,4.541A4.541,4.541,0,0,0,643.322,369.575Z" transform="translate(-471.477 -293.582)"/><path class="b" d="M768.244,253.454a5.092,5.092,0,1,1,5.092-5.092A5.092,5.092,0,0,1,768.244,253.454Zm0-9.634a4.541,4.541,0,1,0,4.542,4.541,4.541,4.541,0,0,0-4.542-4.541Z" transform="translate(-561.992 -202.463)"/><path class="b" d="M37.868,636.547a5.092,5.092,0,1,1,5.092-5.092,5.092,5.092,0,0,1-5.092,5.092Zm0-9.634a4.542,4.542,0,1,0,4.541,4.541,4.542,4.542,0,0,0-4.541-4.541Z" transform="translate(-32.777 -480.044)"/><path class="c" d="M163.71,399.173a9.175,9.175,0,0,0-9.175,9.175c0,5.067,9.175,21.79,9.175,21.79s9.175-16.723,9.175-21.79A9.175,9.175,0,0,0,163.71,399.173Zm0,13.992a4.817,4.817,0,1,1,4.817-4.817,4.817,4.817,0,0,1-4.817,4.817Z" transform="translate(-121 -315.428)"/><path class="c" d="M429.376,274.251a9.175,9.175,0,0,0-9.175,9.175c0,5.067,9.175,21.791,9.175,21.791s9.175-16.723,9.175-21.79a9.175,9.175,0,0,0-9.175-9.175Zm0,13.992a4.817,4.817,0,1,1,4.817-4.817,4.817,4.817,0,0,1-4.817,4.817Z" transform="translate(-313.497 -224.912)"/><path class="d" d="M970.326,138.631c-1.942,5.75-4.92,10.988-10.988,10.988s-10.646-4.929-10.988-10.988c-.437-7.742,4.78-11.02,10.988-10.988C966.671,127.681,972.631,131.808,970.326,138.631Z" transform="translate(-696.164 -118.682)"/><rect class="d" width="21.687" height="27.471" transform="translate(252.185 19.081)"/><path class="e" d="M1025.156,238.7H1027a16.422,16.422,0,0,1,2.46,13.527c-2.05,7.789-.41,9.223-.41,9.223s2.668,8.434-.2,21.142,2.661,16.161,2.661,16.161l-5.124-10.248-2.87-27.055Z" transform="translate(-750.647 -199.151)"/><path class="f" d="M1025.156,241.146H1027a16.422,16.422,0,0,1,2.46,13.527c-2.05,7.789-.41,9.223-.41,9.223s2.668,8.434-.2,21.142,2.661,16.161,2.661,16.161l-5.124-10.248-2.87-27.055Z" transform="translate(-750.647 -200.924)"/><path class="g" d="M976.373,202.517s-1.64,6.559-.82,6.559,3.689,3.484,3.689,3.484l1.845,6.764-1.435,4.919-4.919-1.025-6.149-6.764-1.845-1.845-1.64-5.944s2.05-2.46.615-4.509S976.373,202.517,976.373,202.517Z" transform="translate(-708.32 -172.91)"/><path class="f" d="M976.373,202.517s-1.64,6.559-.82,6.559,3.689,3.484,3.689,3.484l1.845,6.764-1.435,4.919-4.919-1.025-6.149-6.764-1.845-1.845-1.64-5.944s2.05-2.46.615-4.509S976.373,202.517,976.373,202.517Z" transform="translate(-708.32 -172.91)"/><path class="g" d="M789.95,229.1l-4.509-7.379s-4.867-10.77-8.352-6.875,5.277,11.794,5.277,11.794l4.509,5.944Z" transform="translate(-571.497 -181.257)"/><path class="g" d="M976.375,488.284l-3.28,23.981s.41,1.845-3.689,8.608-15.167,21.521-15.167,21.521l-3.279-6.149s3.894-19.471,10.658-23.571l-.82-29.515Z" transform="translate(-698.073 -376.283)"/><path class="f" d="M976.375,488.284l-3.28,23.981s.41,1.845-3.689,8.608-15.167,21.521-15.167,21.521l-3.279-6.149s3.894-19.471,10.658-23.571l-.82-29.515Z" transform="translate(-698.073 -376.283)"/><path class="d" d="M923.461,666.973l4.509,8.608s-3.689,10.453-2.255,11.478,3.279,10.248-.615,9.223-6.969-5.124-6.969-5.739,2.255-9.223,1.025-11.273a9.946,9.946,0,0,0-2.05-2.664l-3.074,5.124-1.025-.615,5.124-8.608a5.4,5.4,0,0,1,3.074-2.664Z" transform="translate(-670.575 -509.47)"/><path class="f" d="M923.461,666.973l4.509,8.608s-3.689,10.453-2.255,11.478,3.279,10.248-.615,9.223-6.969-5.124-6.969-5.739,2.255-9.223,1.025-11.273a9.946,9.946,0,0,0-2.05-2.664l-3.074,5.124-1.025-.615,5.124-8.608a5.4,5.4,0,0,1,3.074-2.664Z" transform="translate(-670.575 -509.47)"/><path class="g" d="M944.131,484.883s1.592,22.669-1.893,28.613V543.01l-4.714.615s-9.52-15.626-6.036-31-3.6-29.466-3.6-29.466Z" transform="translate(-681.359 -376.284)"/><circle class="g" cx="8.608" cy="8.608" r="8.608" transform="translate(252.989 17.411)"/><path class="e" d="M864.267,234.608l-8.608-10.863-4.919-3.279-2.051,2.665-5.739,1.64s-3.689.82-7.584,5.329-10.863,7.174-10.863,7.174l-5.739-1.025S812,233.173,812,232.353s-5.944,5.534-4.509,7.994,4.509,5.534,6.149,7.174,2.255,6.354,12.3,4.919,13.732-6.354,13.732-6.354,1.845,9.428,7.174,11.273,22.751,3.074,22.751,3.074l3.689-12.3s4.1-5.329-1.435-13.118a51.4,51.4,0,0,0-.7-7.254,4.792,4.792,0,0,0-.939-2.379c-1.435-1.23-9.018-3.279-9.018-3.279s1.23,4.1,1.845,4.3S865.085,233.583,864.267,234.608Z" transform="translate(-593.958 -185.94)"/><path class="d" d="M904.943,389.74c10.322-.717,16.331.974,19.012,2.263a6.8,6.8,0,0,1,1.4.849c.2.166.291.3.291.373,0,.615,14.142,1.845,19.266.615s-3.484-27.67-5.739-29.924-1.039-10.506-1.039-10.506-4.495-.972-5.725-.562-7.584-.615-9.838-1.845-5.124-.41-6.969-.82a1.159,1.159,0,0,0-1.447.523,3.543,3.543,0,0,1-1.4,1.416c-4.351,2.507-7.844,19.838-10.474,29.42C899.409,392,904.943,389.74,904.943,389.74Z" transform="translate(-662.202 -279.891)"/><path class="d" d="M964.475,693.763l.82,4.509s4.305,6.149,3.074,11.273c0,0,1.025,6.764,4.714,8.608s.615,6.149-2.869,5.944-6.764.2-7.174-.82-2.869-11.068-2.869-11.068l-.673,11.753-2.05.2.673-13.6s-1.64-3.074.615-8.2l-.569-7.865S963.86,695.813,964.475,693.763Z" transform="translate(-702.775 -528.882)"/><path class="f" d="M983.154,468.978a6.8,6.8,0,0,1,1.4.849c.109-1.937.736-13.65-.016-13.462Z" transform="translate(-721.401 -356.866)"/><path class="d" d="M941.089,144.362s-.1-.531-3.824.867-5.964,11.716-4.1,17.775a5.552,5.552,0,0,1-.857,5.434,8.977,8.977,0,0,0,3.183,13.942q.231.1.471.2l2.33,1.4a10.658,10.658,0,0,1-1.484-8.909,25.636,25.636,0,0,0,.463-13.124c-.171-.732-.364-1.487-.584-2.257-1.864-6.525-.958-5.771,5.567-12.3a41.476,41.476,0,0,0,6.991,4.195c3.262,1.4,6.059,2.8,3.729,7.457s-7.923,8.855-4.195,14.914,4.195,3.729,3.729,6.059h0l-.466,2.33,2.8-2.8-1.864,3.729s6.059,0,7.923-4.661l.932.932s3.729-6.525-3.262-12.584c0,0-2.33-1.4.932-6.059s.757-14.681-3.438-16.545S941.089,144.362,941.089,144.362Z" transform="translate(-683.056 -130.196)"/><circle class="d" cx="4.337" cy="4.337" r="4.337" transform="translate(258.836 2.599)"/><path class="d" d="M967.132,100.484a4.338,4.338,0,0,1,3.9-4.316c-.142-.014-.287-.022-.433-.022a4.337,4.337,0,0,0,0,8.675c.146,0,.291-.008.434-.022A4.338,4.338,0,0,1,967.132,100.484Z" transform="translate(-709.163 -95.861)"/><path class="c" d="M757.5,154.326a9.175,9.175,0,0,0-9.175,9.175c0,5.067,9.175,21.79,9.175,21.79s9.175-16.723,9.175-21.79a9.175,9.175,0,0,0-9.175-9.175Zm0,13.992a4.817,4.817,0,1,1,4.817-4.817,4.817,4.817,0,0,1-4.817,4.817Z" transform="translate(-551.252 -138.016)"/><circle class="h" cx="4.965" cy="4.965" r="4.965" transform="translate(127.325 177.094)"/><circle class="h" cx="4.965" cy="4.965" r="4.965" transform="translate(158.212 156.095)"/><circle class="h" cx="4.965" cy="4.965" r="4.965" transform="translate(120.015 136.542)"/></g></svg>