<svg xmlns="http://www.w3.org/2000/svg" xmlns:xlink="http://www.w3.org/1999/xlink" width="191.459" height="171.05" viewBox="0 0 191.459 171.05"><defs><style>.a{fill:#00c45b;}.b,.e{fill:#08006a;}.b{opacity:0.04;}.c{opacity:0.7;}.d{fill:url(#a);}.f{fill:#4d8af0;}.f,.g,.h,.i{opacity:0.5;}.g{fill:#f55f44;}.h,.j{fill:#47e6b1;}.k{fill:#ffb9b9;}.l{fill:#575a89;}.m{opacity:0.1;}.n{fill:#2f2e41;}</style><linearGradient id="a" y1="0.5" x2="1" y2="0.5" gradientUnits="objectBoundingBox"><stop offset="0" stop-color="gray" stop-opacity="0.251"/><stop offset="0.535" stop-color="gray" stop-opacity="0.122"/><stop offset="1" stop-color="gray" stop-opacity="0.102"/></linearGradient></defs><g transform="translate(-0.004)"><path class="a" d="M392.083,76.854,332,113.83s0,76.262,60.085,117.86c60.085-41.6,60.085-117.86,60.085-117.86Z" transform="translate(-295.971 -74.46)"/><path class="b" d="M599.727,76.854l-1.027.632V230.968c.341.241.682.482,1.027.721,60.085-41.6,60.085-117.86,60.085-117.86Z" transform="translate(-503.256 -74.46)"/><g class="c" transform="translate(76.846 67.448)"><path class="d" d="M349.641,312.623l11.327,10.383,14.042-20.256,5.664,4.72-19.705,24.976-16.047-17.935Z" transform="translate(-344.921 -302.75)"/></g><path class="e" d="M364.75,312.47l9.188,8.423,13.017-19.142,4.594,3.829L373.938,328.55,360.921,314Z" transform="translate(-280.51 -234.525)"/><path class="f" d="M326.042,108.776a.819.819,0,0,1-.456-.989.4.4,0,0,0,.018-.091h0a.411.411,0,0,0-.738-.272h0a.4.4,0,0,0-.045.081.819.819,0,0,1-.989.456.394.394,0,0,0-.091-.018h0a.41.41,0,0,0-.272.738h0a.392.392,0,0,0,.081.045.819.819,0,0,1,.456.989.393.393,0,0,0-.018.091h0a.411.411,0,0,0,.738.272h0a.393.393,0,0,0,.045-.081.819.819,0,0,1,.989-.456.393.393,0,0,0,.091.018h0a.411.411,0,0,0,.272-.738h0A.393.393,0,0,0,326.042,108.776Z" transform="translate(-289.215 -98.093)"/><path class="f" d="M180.042,433.776a.819.819,0,0,1-.456-.989.4.4,0,0,0,.018-.091h0a.41.41,0,0,0-.738-.272h0a.393.393,0,0,0-.045.081.819.819,0,0,1-.989.456.4.4,0,0,0-.091-.018h0a.411.411,0,0,0-.272.738h0a.4.4,0,0,0,.081.045.819.819,0,0,1,.456.989.4.4,0,0,0-.018.091h0a.411.411,0,0,0,.738.272h0a.393.393,0,0,0,.045-.081.819.819,0,0,1,.989-.456.4.4,0,0,0,.091.018h0a.411.411,0,0,0,.272-.738h0A.393.393,0,0,0,180.042,433.776Z" transform="translate(-175.741 -350.688)"/><circle class="g" cx="1.337" cy="1.337" r="1.337" transform="translate(165.398 55.25)"/><circle class="g" cx="1.337" cy="1.337" r="1.337" transform="translate(25.712 150.825)"/><circle class="g" cx="1.337" cy="1.337" r="1.337" transform="translate(188.122 106.713)"/><path class="f" d="M865.042,137.776a.819.819,0,0,1-.456-.989.39.39,0,0,0,.018-.091h0a.411.411,0,0,0-.738-.272h0a.387.387,0,0,0-.045.081.819.819,0,0,1-.989.456.394.394,0,0,0-.091-.018h0a.411.411,0,0,0-.272.738h0a.392.392,0,0,0,.081.045.818.818,0,0,1,.456.989.4.4,0,0,0-.018.091h0a.41.41,0,0,0,.737.272h0a.387.387,0,0,0,.045-.081.819.819,0,0,1,.989-.456.4.4,0,0,0,.091.018h0a.41.41,0,0,0,.272-.737h0A.394.394,0,0,0,865.042,137.776Z" transform="translate(-708.134 -120.632)"/><path class="f" d="M965.042,765.777a.819.819,0,0,1-.456-.989.4.4,0,0,0,.018-.091h0a.411.411,0,0,0-.738-.272h0a.4.4,0,0,0-.045.081.819.819,0,0,1-.989.456.4.4,0,0,0-.091-.018h0a.411.411,0,0,0-.272.738h0a.4.4,0,0,0,.081.046.818.818,0,0,1,.456.989.406.406,0,0,0-.018.091h0a.41.41,0,0,0,.738.272h0a.391.391,0,0,0,.046-.081.819.819,0,0,1,.989-.456.39.39,0,0,0,.091.018h0a.41.41,0,0,0,.272-.738h0A.39.39,0,0,0,965.042,765.777Z" transform="translate(-785.856 -608.724)"/><path class="f" d="M173.042,243.776a.819.819,0,0,1-.456-.989.394.394,0,0,0,.018-.091h0a.41.41,0,0,0-.738-.272h0a.392.392,0,0,0-.045.081.819.819,0,0,1-.989.456.4.4,0,0,0-.091-.018h0a.41.41,0,0,0-.272.738h0a.392.392,0,0,0,.081.045.819.819,0,0,1,.456.989.4.4,0,0,0-.018.091h0a.411.411,0,0,0,.738.272h0a.393.393,0,0,0,.045-.081.819.819,0,0,1,.989-.456.394.394,0,0,0,.091.018h0a.411.411,0,0,0,.272-.738h0A.392.392,0,0,0,173.042,243.776Z" transform="translate(-170.3 -203.017)"/><circle class="h" cx="1.337" cy="1.337" r="1.337" transform="translate(16.356 61.934)"/><circle class="h" cx="1.337" cy="1.337" r="1.337" transform="translate(188.79 72.628)"/><g class="i" transform="translate(128.416)"><rect class="j" width="0.668" height="3.787" transform="translate(1.559)"/><rect class="j" width="0.668" height="3.787" transform="translate(3.787 1.56) rotate(90)"/></g><g class="i" transform="translate(130.867 148.374)"><rect class="j" width="0.668" height="3.787" transform="translate(1.559)"/><rect class="j" width="0.668" height="3.787" transform="translate(3.787 1.56) rotate(90)"/></g><g class="i" transform="translate(4.325 156.394)"><rect class="j" width="0.668" height="3.787" transform="translate(1.559)"/><rect class="j" width="0.668" height="3.787" transform="translate(3.787 1.56) rotate(90)"/></g><g class="i" transform="translate(156.487 88.222)"><rect class="j" width="0.668" height="3.787" transform="translate(1.559)"/><rect class="j" width="0.668" height="3.787" transform="translate(3.787 1.56) rotate(90)"/></g><path class="h" d="M793.519,117.175l1.435,1.316,2.034-2.991.718.6-2.751,3.589-2.034-2.273Z" transform="translate(-616.268 -89.768)"/><rect class="e" width="4.955" height="6.371" transform="translate(131.322 53.498) rotate(-2.221)"/><path class="k" d="M658.166,399.884s-6.857-3.276-6.747-.447,6.912,4.691,6.912,4.691Z" transform="translate(-544.229 -324.282)"/><path class="e" d="M676.832,499.709a98.936,98.936,0,0,0-4.43,13.632c-1.2,5.714-3.016,13.577-.674,19.154s9,21.966,9.067,23.735-.57,3.564.844,3.509,9.113-2.479,9.426-3.553-2.627-3.794-2.627-3.794l-7.258-22.742,7.572-14.816,5.462,22.1,1.07,27.587s5.25-1.62,6.013-.233c0,0,2.352-3.279,2.651-4.708s-1.111-28.648-1.111-28.648,4.819-31,.929-30.852S684.637,490.905,676.832,499.709Z" transform="translate(-559.132 -400.167)"/><path class="l" d="M700.765,767.516s-3.589,7.932-3.929,8.3-2.679,4-.91,3.932,5.944-2,9.017-4.954,7.126-8.069,6.758-8.409a20.876,20.876,0,0,0-2.884-1.3Z" transform="translate(-578.313 -609.359)"/><path class="l" d="M779.953,793.547a20.614,20.614,0,0,1-.869,4.993c-.652,1.442-.57,3.564,1.2,3.5s6.339-.954,6.339-.954.271-2.136-.1-2.476-1.933-4.175-1.267-5.264S779.953,793.547,779.953,793.547Z" transform="translate(-643.162 -630.986)"/><path class="k" d="M778.132,278.6s3.77,5.875,5.24,7.235-2.665,4.354-2.665,4.354l-7.4,1s.093-6.734-.288-7.427S778.132,278.6,778.132,278.6Z" transform="translate(-638.725 -231.261)"/><path class="e" d="M739.725,307.462s1.525,2.775,2.939,2.72,8.732-3.172,9.045-4.247,2.424,7.7,2.424,7.7l-17.905,31.511-4.368-3.018,2.116-18.5,1.738-9.985Z" transform="translate(-606.75 -252.434)"/><path class="l" d="M720.994,328.237a9.909,9.909,0,0,0-1.1,4.647c0,.071.005.141.012.212.169,3.273,1.375,7.059,1.808,9.812.314,1.975.225,3.416-.931,3.755-2.8.817.408,1.4-10.432,5.009s-12.732.494-12.76-.214,1.535-6.081,1.168-6.421-5.141,4.45-6.583,3.8-.165-4.244-.165-4.244,3.249-7.564,3.18-9.333,4.921-10.109,4.921-10.109l3.394-22.093s1.3-2.884,3.06-3.307a4.347,4.347,0,0,1,3.211.584l-2.936,6.49-3.1,11.455.518,4.23s3.6-7.578,5.969-10.5,7.411-9.851,7.411-9.851,1.178-3.974.289-5.161,3.709-1.369,5.669,3.514c1.039,2.588,2.726,6.447,3.783,10.04.942,3.183,1.387,6.159.454,7.86C726.409,321.007,722.822,324.422,720.994,328.237Z" transform="translate(-575.374 -245.009)"/><path class="m" d="M825.795,365.085c-1.426,2.6-5.013,6.014-6.841,9.829-.478-1.721-1.06-3.5-1.06-3.5s-2.235-11.957,4.375-15.047a4.424,4.424,0,0,1,3.072.858C826.283,360.409,826.728,363.384,825.795,365.085Z" transform="translate(-673.334 -291.686)"/><path class="l" d="M687.355,392.191l-5.6,1.634-7.781.3-.8,6.761,12.787.921S689.151,392.83,687.355,392.191Z" transform="translate(-561.135 -319.545)"/><path class="k" d="M756.79,494.231s-7.5,1.244-5.786,3.5,8.353-.116,8.353-.116Z" transform="translate(-621.432 -398.852)"/><path class="m" d="M780.572,461.5c.169,3.273,1.375,7.059,1.808,9.812-2.388,2.26-4.659,4.254-5.515,4.287-1.768.069-4.611-.175-5.659.219s-1.661-6.311-1.661-6.311a5.8,5.8,0,0,1,3.413-3.32A38.833,38.833,0,0,0,780.572,461.5Z" transform="translate(-636.039 -373.416)"/><path class="l" d="M784.6,346.83s5.985-.941,5.662,8.99.631,16.269-1.776,18.134-10.226,10.314-11.995,10.383-4.612-.175-5.659.219-1.661-6.311-1.661-6.311a5.8,5.8,0,0,1,3.413-3.32c2.788-1.171,9.357-5.322,9.3-6.737a45.133,45.133,0,0,0-1.662-6.311S777.994,349.92,784.6,346.83Z" transform="translate(-635.751 -284.271)"/><circle class="k" cx="7.787" cy="7.787" r="7.787" transform="translate(126.343 40.466)"/><path class="n" d="M734.351,227.116a1.5,1.5,0,0,1-.655.329.467.467,0,0,1-.541-.375,1.941,1.941,0,0,1-.743.953c-.364.19-.926.031-.979-.376a1.717,1.717,0,0,1-.4.834.592.592,0,0,1-.832.028,21.373,21.373,0,0,1,.111,2.649,3.373,3.373,0,0,0,.953,2.4c.974.847,2.438.638,3.718.478a1.129,1.129,0,0,1,.583.032c.48.2.458.872.464,1.393a3.87,3.87,0,0,0,3.389,3.675,1.94,1.94,0,0,0,1.442-.352c.364-.308.549-.81.966-1.042.678-.377,1.5.173,2,.769s.984,1.33,1.751,1.439c1.015.144,1.788-.89,2.168-1.843a10.743,10.743,0,0,0-.214-8.348C745.414,225.139,738.173,224.408,734.351,227.116Z" transform="translate(-605.465 -190.024)"/></g></svg>