<svg xmlns="http://www.w3.org/2000/svg" xmlns:xlink="http://www.w3.org/1999/xlink" width="269.331" height="179.662" viewBox="0 0 269.331 179.662"><defs><style>.a,.d{fill:#00c45b;}.a,.b,.n{opacity:0.1;}.c{fill:#3a3768;}.e{opacity:0.2;}.f{fill:#fff;opacity:0.3;}.g{fill:url(#a);}.h{fill:#4c4c56;}.i{fill:#d1d9ec;}.j{fill:#dfe6f5;}.k{fill:#fdc2cc;}.l{fill:#5f5d7e;}.m{fill:#865a61;}</style><linearGradient id="a" x1="0.5" y1="1" x2="0.5" gradientUnits="objectBoundingBox"><stop offset="0" stop-color="gray" stop-opacity="0.251"/><stop offset="0.54" stop-color="gray" stop-opacity="0.122"/><stop offset="1" stop-color="gray" stop-opacity="0.102"/></linearGradient></defs><path class="a" d="M365.72,284.407a30.83,30.83,0,0,1-9.969,5.274q-.808.276-1.639.516c-1.43.426-2.894.8-4.37,1.118-.728.163-1.461.312-2.194.452-1.247.24-2.5.454-3.743.65-4.618.725-9.267,1.262-13.939,1.67q-2.161.191-4.324.343l-.576.041-1.033.07-.635.041c-.965.065-1.931.121-2.894.176-3.859.217-7.723.374-11.588.516-2.839.1-5.651.181-8.475.258l-5.744.168-1.484.044-.65.018q-2.55.077-5.106.147l-.48.013-1.5.044-2.84.077-.847.023-.774.021c-18.026.485-36.064.839-54.079.687q-2.163-.016-4.324-.046c-13.377-.173-26.738-.64-40.076-1.549-4.688-.32-9.406-.707-14.1-1.242q-2.168-.245-4.324-.534c-11.528-1.549-22.773-4.161-32.845-9.035-7.587-3.678-14.59-8.911-17.527-15.873-2.966-7.026-1.4-14.918,1.99-21.8s8.482-13.059,12.876-19.53c1.51-2.228,2.938-4.548,4.231-6.934.077-.145.157-.292.232-.436q.994-1.866,1.874-3.779h0q.836-1.822,1.549-3.681.214-.555.41-1.107c.015-.041.031-.083.044-.124s.034-.093.049-.139a47.792,47.792,0,0,0,1.946-7.194l.062-.341c.028-.163.057-.323.083-.485s.049-.3.072-.454h0a35.623,35.623,0,0,0,.4-6.931V195.3a29.412,29.412,0,0,0-.387-3.544h0c-.015-.1-.031-.2-.052-.3a27.755,27.755,0,0,0-1.36-4.93c-.026-.07-.054-.142-.083-.214a.29.29,0,0,0-.036-.1c-.194-.493-.4-.981-.627-1.469h0c-.036-.083-.077-.168-.116-.258h0c-.075-.157-.15-.315-.23-.47h0q-.545-1.113-1.213-2.2c-.516-.86-1.1-1.7-1.7-2.527l-.085-.116-.07-.1c-.79-1.076-1.616-2.135-2.421-3.2-.632-.834-1.252-1.673-1.833-2.527l-.1-.155a25.748,25.748,0,0,1-1.879-3.234c-.108-.23-.214-.459-.312-.692-.176-.408-.338-.818-.483-1.231-1.982-5.6-1.381-11.719-.429-17.553,1.412-8.668,4.04-18.01,12.174-23.421,7.1-4.726,16.712-5.279,25.814-4.13,1.458.181,2.9.405,4.324.663l.774.147c11.513,2.207,22.4,6.115,33.155,10.3,2.512.978,5.018,1.972,7.522,2.961q2.935,1.159,5.873,2.305,3.395,1.322,6.841,2.581,2.153.79,4.324,1.549,3.482,1.211,7.011,2.3,2.5.774,5.023,1.458a107.915,107.915,0,0,0,24.613,3.98,75.189,75.189,0,0,0,19.053-1.766c1.458-.33,2.9-.71,4.324-1.138a56.278,56.278,0,0,0,5.834-2.114,39.188,39.188,0,0,0,12.54-8.26l.028-.028c5.062-5.134,12.483-7.744,20.258-8.18a42.367,42.367,0,0,1,4.324-.023,42.917,42.917,0,0,1,15.664,3.666c12.3,5.576,20.251,17.38,19.652,29.169-.87,17.161-17.414,30.333-27.285,45.347-.7,1.058-1.36,2.15-1.977,3.265-.227.408-.444.818-.656,1.231-2.432,4.75-3.893,9.879-3.1,14.807a15.807,15.807,0,0,0,.63,2.558c.121.364.258.728.41,1.089a20.261,20.261,0,0,0,5.134,7.026,35.113,35.113,0,0,0,3.157,2.566c9.21,6.7,22.551,10.919,28.444,20.067C374.855,268.046,373.033,278.333,365.72,284.407Z" transform="translate(-103.359 -117.148)"/><path class="a" d="M367.417,253.486V213.71h5.4c.212-.413.429-.823.656-1.231h-6.053V170.661h21.167c-.046-.41-.1-.826-.15-1.231H367.417v-38.4a42.372,42.372,0,0,0-4.324.023v38.367H324.432V149.646c-1.42.429-2.865.808-4.324,1.138v18.637H264.922l-.132-.235,11.652-20.617q-2.525-.684-5.023-1.458l-7.011,12.4V144.8q-2.171-.754-4.324-1.549v17.625l-12.713-22.494c-2.5-.989-5.01-1.982-7.522-2.961l19.1,33.777-.134.235H205.91V124.963c-1.422-.258-2.865-.483-4.324-.663v45.122H164.017c.145.413.307.823.483,1.231h37.086v41.818H174.415c-.013.041-.028.083-.044.124q-.2.552-.41,1.107h27.62v39.784H162.69q.181.614.374,1.231h38.522v40.7q2.168.573,4.324,1.2v-41.9h54.177v43.408q2.161.031,4.324.046V254.718h55.7v42.714l2.839-.077,1.5-.044V254.718h38.638v41.111q2.163-.155,4.324-.343V254.718h16.908c-.046-.41-.09-.821-.134-1.231Zm-107.333,0H205.91V213.71h54.177Zm0-41.007H205.91V170.661h53.4l.774,1.118Zm60.024,41.007h-55.7V213.71h55.7Zm0-41.007h-55.7V170.661h55.7Zm42.974,41.007H324.432V213.71h38.651Zm0-41.007H324.432V170.661h38.651Z" transform="translate(-140.906 -118.541)"/><path class="a" d="M827.539,186.4a1.492,1.492,0,0,1-1.43,1.549h-2.886a1.528,1.528,0,0,1,1.095,1.5,1.492,1.492,0,0,1-1.43,1.549H812.861a1.365,1.365,0,0,1-.991-.434,39.188,39.188,0,0,0,12.54-8.26l.028-.028h.315a1.376,1.376,0,0,1,1.009.452,1.616,1.616,0,0,1,0,2.163h.338A1.492,1.492,0,0,1,827.539,186.4Z" transform="translate(-622.51 -161.547)"/><path class="a" d="M404.1,241.563h-.333a1.6,1.6,0,0,0,.408-1.074h0a1.492,1.492,0,0,0-1.43-1.549H392.715a1.492,1.492,0,0,0-1.43,1.549h0a1.492,1.492,0,0,0,1.43,1.549h.336a1.6,1.6,0,0,0-.41,1.074,1.531,1.531,0,0,0,1.094,1.5h-2.886a1.549,1.549,0,0,0,0,3.08h10.026a1.492,1.492,0,0,0,1.43-1.549,1.526,1.526,0,0,0-1.084-1.5h2.886a1.549,1.549,0,0,0,0-3.082Z" transform="translate(-309.144 -203.588)"/><path class="a" d="M884.521,484.713h-.336a1.585,1.585,0,0,0,.408-1.074h0a1.492,1.492,0,0,0-1.43-1.549H873.137a1.5,1.5,0,0,0-1.43,1.549h0a1.5,1.5,0,0,0,1.43,1.549h.336a1.6,1.6,0,0,0-.408,1.074,1.523,1.523,0,0,0,1.095,1.495h-2.886a1.549,1.549,0,0,0,0,3.082H881.3a1.5,1.5,0,0,0,1.43-1.549,1.525,1.525,0,0,0-1.094-1.495h2.886a1.549,1.549,0,0,0,0-3.082Z" transform="translate(-665.545 -383.973)"/><ellipse class="b" cx="20.625" cy="27.339" rx="20.625" ry="27.339" transform="matrix(0.99, -0.143, 0.143, 0.99, 13.698, 55.153)"/><ellipse class="c" cx="20.625" cy="27.339" rx="20.625" ry="27.339" transform="matrix(0.99, -0.143, 0.143, 0.99, 14.231, 54.932)"/><path class="d" d="M198.775,339.315a29.441,29.441,0,0,1-1.409,7.442,22.078,22.078,0,0,1-4.254,7.649,14.177,14.177,0,0,1-8.627,4.9,13.022,13.022,0,0,1-1.67.129c-9.061.124-17.522-9.293-19.347-21.96-1.928-13.439,4.332-25.481,14-26.862a13.764,13.764,0,0,1,8.371,1.526,22.94,22.94,0,0,1,9.52,10.232h0a32.721,32.721,0,0,1,3.126,10.067,33.4,33.4,0,0,1,.289,6.872Z" transform="translate(-141.224 -256.665)"/><path class="d" d="M244.589,408.851l-1.249,11.381s4-.374,5.163-2.372l-3.684-9.2Z" transform="translate(-200.737 -329.498)"/><path class="e" d="M244.589,408.851l-1.249,11.381s4-.374,5.163-2.372l-3.684-9.2Z" transform="translate(-200.737 -329.498)"/><path class="e" d="M180.057,406.713l6.286-.423s.653,4.776,2.638,7.463l-4.463,4.853S179.889,411.231,180.057,406.713Z" transform="translate(-153.787 -327.739)"/><rect class="f" width="21.74" height="0.258" transform="translate(27.361 94.282) rotate(-47)"/><path class="f" d="M85.431,302.6l-.021-.258,20.62-1.5.021.256Z" transform="translate(-63.363 -223.183)"/><path class="e" d="M259.616,327.1h0l-1.784,2.163c-4.412-8.444-8.093-8.919-8.093-8.919l.356-3.48A22.9,22.9,0,0,1,259.616,327.1Z" transform="translate(-205.485 -261.394)"/><path class="e" d="M206.957,366.9l8.142,8.518-.57.24-9.468-3.722A24.375,24.375,0,0,1,206.957,366.9Z" transform="translate(-172.339 -298.517)"/><rect class="f" width="0.258" height="21.105" transform="translate(22.546 69.422) rotate(-68.55)"/><path class="e" d="M250.79,399.94l6.639-.94a13.869,13.869,0,0,1,.219,3.549.607.607,0,0,1-.028.072Z" transform="translate(-206.264 -322.331)"/><path class="e" d="M192.14,331.762s2.775-4.009,6.231-5.072L201.428,334s-2.979,1.1-4.022,3.3Z" transform="translate(-162.754 -268.687)"/><path class="f" d="M219.241,334.568l-.222-.028c-.049,0-.1-.015-.139-.17l-9.1-21.528.237-.1,8.8,20.837c0-1.159.139-3.74.622-9.494.426-5.08.922-10.217.927-10.269l.258.026c-.738,7.643-1.724,19.1-1.528,20.393Z" transform="translate(-175.84 -258.338)"/><rect class="f" width="0.258" height="22.837" transform="translate(26.447 60.28) rotate(-44.18)"/><path class="e" d="M269.87,367.619l2.78-3.149s2.641,6.513,2.344,8.449l-3.3.465S270.505,367.795,269.87,367.619Z" transform="translate(-220.419 -296.715)"/><rect class="f" width="14.706" height="0.258" transform="translate(44.27 76.617) rotate(-48.39)"/><path class="f" d="M222.433,364.781l-.016-.137a.267.267,0,0,0-.018-.119c-.018-.039,0-.106-.021-.16a17.07,17.07,0,0,0-1.709-5.408c-.028-.054-.057-.108-.088-.163a.564.564,0,0,0-.041-.077,11.686,11.686,0,0,0-5.6-5.421c-.083-.036-.165-.067-.258-.1a7.29,7.29,0,0,0-3.614-.41,6.88,6.88,0,0,0-1.332.328.626.626,0,0,0-.1.034l-.147.054a8.459,8.459,0,0,0-3.815,3.129l-.028.041-.075.111h0a.568.568,0,0,0-.044.065c-.108.163-.214.328-.315.5s-.191.33-.281.516a13.723,13.723,0,0,0-1.265,3.547c-.021.085-.039.173-.054.258a16.94,16.94,0,0,0-.2,5.039l.015.152a.284.284,0,0,0,.013.1c.018.142.036.284.057.426a16.626,16.626,0,0,0,2.607,6.923c.015.026.034.049.052.075s.065.1.1.142c.088.129.178.258.274.377a9.575,9.575,0,0,0,6.761,4.115c.111,0,.225.013.338.015h.258a6.767,6.767,0,0,0,.909-.07,7.507,7.507,0,0,0,4.1-2.065c.067-.062.134-.126.2-.194a11.209,11.209,0,0,0,2.414-3.8c.036-.088.07-.176.1-.258a15.344,15.344,0,0,0,.862-3.841l.023-.271A17.479,17.479,0,0,0,222.433,364.781Zm-1.009,7.37c-.031.09-.065.181-.1.258A11.043,11.043,0,0,1,219,376.154c-.065.067-.129.134-.2.2a7.266,7.266,0,0,1-4.032,2.05,6.279,6.279,0,0,1-.849.067h-.258c-2.651-.054-5.191-1.652-7.057-4.213l-.16-.225c-.052-.072-.1-.145-.147-.219a16.337,16.337,0,0,1-2.532-6.768c-.021-.137-.039-.274-.054-.408,0-.088-.021-.173-.028-.258a16.684,16.684,0,0,1,.188-4.923c.015-.088.031-.173.052-.258a13.441,13.441,0,0,1,1.252-3.524l.17-.312c.121-.214.258-.423.379-.622.039-.059.077-.119.119-.176a.418.418,0,0,1,.028-.044,8.238,8.238,0,0,1,3.733-3.08l.243-.09h0a6.853,6.853,0,0,1,2.723-.359,7.408,7.408,0,0,1,2.093.47l.258.1a11.511,11.511,0,0,1,5.444,5.356c.044.08.085.163.127.245a16.908,16.908,0,0,1,1.626,5.245l.023.157h0v.1c0,.031.013.106.018.16a17.039,17.039,0,0,1,.08,3.312v.083l-.016.188h0A14.949,14.949,0,0,1,221.424,372.151Z" transform="translate(-171.038 -287.996)"/><path class="e" d="M289.58,419.232a29.44,29.44,0,0,1-1.409,7.442l-2.651-2.682c.723-1.089,1.167-5.782,1.167-5.782l.152.106C286.973,418.6,288.44,418.977,289.58,419.232Z" transform="translate(-232.029 -336.582)"/><rect class="f" width="0.258" height="16.201" transform="matrix(0.705, -0.709, 0.709, 0.705, 44.575, 78.727)"/><path class="f" d="M184.652,300.348l-13.242-5.354L184.4,293.04l.039.256-12.06,1.812,12.365,5Z" transform="translate(-127.163 -217.396)"/><path class="e" d="M249.717,468.259a14.178,14.178,0,0,1-8.627,4.9,13.05,13.05,0,0,1-1.67.129l.542-5.421a10.188,10.188,0,0,0,7.84-3.931Z" transform="translate(-197.829 -370.508)"/><rect class="f" width="0.258" height="19.879" transform="matrix(0.922, -0.386, 0.386, 0.922, 44.06, 79.502)"/><rect class="f" width="23.258" height="0.258" transform="translate(41.555 102.764) rotate(-85.04)"/><path class="f" d="M207.551,343a1.8,1.8,0,0,0-.031-.258c-.023-.212-.052-.423-.083-.635a27.39,27.39,0,0,0-2.207-7.556v-.023l-.108-.23a19.25,19.25,0,0,0-7.806-8.81c-.062-.036-.126-.07-.191-.1l-.054-.028a11.059,11.059,0,0,0-6.712-1.226,10.325,10.325,0,0,0-1.887.457l-.243.088h0a12.225,12.225,0,0,0-5.258,3.962q-.387.488-.741,1.017c-.049.072-.1.145-.145.219a20.759,20.759,0,0,0-2.889,7.486c-.018.085-.034.17-.046.258a27.073,27.073,0,0,0-.183,7.956,1.812,1.812,0,0,0,.034.258c.013.088.031.245.049.369.028.2.059.4.093.6v.018c.126.774.284,1.526.47,2.264a.074.074,0,0,0,0,.023,25.039,25.039,0,0,0,3.8,8.438c.049.072.1.142.152.214a19.985,19.985,0,0,0,1.652,1.99c.346.367.7.71,1.064,1.033a12.826,12.826,0,0,0,7.607,3.48c.31.021.622.028.932.021h.108a1.457,1.457,0,0,0,.152,0,9.948,9.948,0,0,0,1.033-.093,11.2,11.2,0,0,0,6.712-3.7c.023-.023.044-.049.065-.072l.127-.139a16.52,16.52,0,0,0,2.29-3.413,19.917,19.917,0,0,0,1.053-2.46,1093.817,1093.817,0,0,1,.093-.274,23.641,23.641,0,0,0,1.146-5.537.388.388,0,0,1,.013-.121c.013-.041,0-.1.013-.147q.08-1.053.083-2.13A28.247,28.247,0,0,0,207.551,343Zm-.178,5.478a23.348,23.348,0,0,1-1.1,5.436q-.044.134-.093.258a19.76,19.76,0,0,1-1.079,2.545,16.24,16.24,0,0,1-2.173,3.263c-.059.072-.124.145-.188.214a11.006,11.006,0,0,1-6.65,3.715q-.488.07-.976.093h-.258a12.259,12.259,0,0,1-8.469-3.508c-.328-.3-.65-.614-.968-.947a20.309,20.309,0,0,1-1.662-2l-.075-.108-.077-.108a25.782,25.782,0,0,1-4.3-11.185c-.018-.116-.034-.232-.049-.348a.351.351,0,0,0-.018-.134c-.018-.046,0-.08-.013-.121a26.846,26.846,0,0,1,.168-7.842l.046-.258a20.494,20.494,0,0,1,2.839-7.393q.039-.065.085-.132c.018-.031.039-.062.059-.09.227-.343.467-.674.715-.989a12,12,0,0,1,5.2-3.939l.173-.062.072-.026a10.034,10.034,0,0,1,1.822-.439,10.211,10.211,0,0,1,2.153-.077,11.316,11.316,0,0,1,4.486,1.324l.052.026.194.106a16.451,16.451,0,0,1,4.646,3.942,22.459,22.459,0,0,1,3.01,4.8c.013.023.023.049.034.072l.085.181h0a27.27,27.27,0,0,1,2.137,7.383c.031.212.059.421.085.632a.44.44,0,0,0,.018.152c.018.052,0,.07,0,.106a27.341,27.341,0,0,1,.1,5.163Q207.389,348.34,207.373,348.477Z" transform="translate(-152.827 -266.715)"/><ellipse class="d" cx="1.298" cy="1.786" rx="1.298" ry="1.786" transform="matrix(0.99, -0.143, 0.143, 0.99, 41.914, 76.255)"/><ellipse class="e" cx="1.298" cy="1.786" rx="1.298" ry="1.786" transform="matrix(0.99, -0.143, 0.143, 0.99, 41.914, 76.255)"/><circle class="a" cx="3.495" cy="3.495" r="3.495" transform="translate(169.572 8.343)"/><circle class="a" cx="3.495" cy="3.495" r="3.495" transform="translate(8.738 45.757)"/><circle class="a" cx="3.495" cy="3.495" r="3.495" transform="translate(254.431 70.582)"/><circle class="a" cx="3.495" cy="3.495" r="3.495" transform="translate(240.29 91.674)"/><circle class="a" cx="1.611" cy="1.611" r="1.611" transform="translate(181.743 4.946)"/><circle class="a" cx="1.611" cy="1.611" r="1.611" transform="translate(0 39.526)"/><circle class="a" cx="1.611" cy="1.611" r="1.611" transform="translate(254.431 113.448)"/><circle class="a" cx="1.138" cy="1.138" r="1.138" transform="translate(190.987 0)"/><circle class="a" cx="1.138" cy="1.138" r="1.138" transform="translate(7.6 64.178)"/><path class="g" d="M664.359,378.653s-1.931-8.3-3.216-18.4-11.252-26.872-11.252-26.872c-.044-.085-.09-.173-.137-.258a45.82,45.82,0,0,0-5.545-8.222,36.156,36.156,0,0,0-8.567-7.623h0c-.315-.48-.653-1.009-1.009-1.575-1.337-2.114-2.927-4.773-4.445-7.643a1.07,1.07,0,0,0-.036-.2h0c-.676-4.089-.7-8.389,1.332-11.921,1-1.742,2.452-3.178,3.557-4.856a26.008,26.008,0,0,0,3.291-9.223,27.045,27.045,0,0,0,.751-6.846v-.1h0c0-.16-.021-.32-.036-.48-.379-4.161-2.561-7.9-4.688-11.479a15,15,0,0,0-4.1-5.047c-3.753-2.532-8.353-.947-12.365-2.4-4.262-1.549-8.157-2.992-12.8-3.467-1.644-.168-3.451-.209-4.783.774-1.4,1.033-1.864,2.917-2.793,4.406-1.773,2.839-5.119,4.13-7.943,5.916-2.145,1.345-4.2,3.5-4.646,5.862v-.021a5.227,5.227,0,0,0-.083.774v.126a4.691,4.691,0,0,0,.191,1.412c.16.083.323.155.488.227-.1.168-.207.336-.3.516l-.217.385A25.132,25.132,0,0,0,597.553,307.9h0c.152.372.31.756.465,1.154a58.449,58.449,0,0,1,4.13,21.059h0v.989h0c-2.323,2.943-4.732,6.593-4.646,9.117.139,4.228-5.5,14.066-7.019,16.637l-.3.516h0c-1.518-1.1-3.322-2.088-4.2-1.394l-.733-.47c-3.707-2.38-10.325-6.789-12.822-9.424-3.536-3.746-10.449-7.166-10.449-7.166s-5.465-6.515-5.142-8.957c.16-1.216-2.034-10.922-4.752-18.044,1.985.209,4.024.459,4.646.537l.152.134.214.034c7.514,6.6,9.159,3.66,9.159,3.66.614-.416.823-1.668.883-2.148v-.114h.039v-.1a.684.684,0,0,0,.041-.088l.018-.034.013-.026a.208.208,0,0,1,.028-.067,1.2,1.2,0,0,0,.1-.258h-.021a9.654,9.654,0,0,0,.157-1.637,1.859,1.859,0,0,0-1.456-1.822.056.056,0,0,0-.013-.041c-.976-2.9-8.072,1.4-8.857,1.89l-.191.021c-1.422-.284-3.614-.8-5.47-1.252-2.517-6.123-5.372-9.551-7.2-2.016l-1.683-.289a1.549,1.549,0,0,0-1.2.284,2.044,2.044,0,0,0-.576.656l-7.3-1.156-1.722.059,1.458.7.108.052,7.3,1.19a1.582,1.582,0,0,0,1.355,1.366l1.639.237c-2.927,17.086,3.614,22.662,3.614,22.662s7.876,7.723,7.876,9.551c0,1.549,15.375,19.946,20.047,25.5.836,1,1.332,1.58,1.332,1.58,1.835,2.109,10.661,9.313,14.768,12.633h0c.4,3.356.774,6.712.989,8.552l.774-.021,3.673-.1,1.977-.059q2.556-.07,5.106-.147l.651-.018,1.484-.046q2.873-.083,5.743-.17,4.236-.128,8.475-.258c3.872-.137,7.729-.294,11.588-.516q1.444-.081,2.894-.176l.635-.044,1.033-.07c6.314-.447,12.6-1.089,18.844-2.081,1.244-.2,2.5-.416,3.743-.661.733-.139,1.466-.292,2.194-.457,1.477-.328,2.94-.7,4.37-1.133C664.9,381.854,664.359,378.653,664.359,378.653Z" transform="translate(-414.765 -213.24)"/><path class="d" d="M603.486,482.8l-.96-.034s-6.513-.808-8.6-.857a1.44,1.44,0,0,0-.627.049l.462-1.864.565.139c1.985.49,8.565,2.1,9.623,2.137C605.2,482.408,603.486,482.8,603.486,482.8Z" transform="translate(-460.36 -382.489)"/><path class="d" d="M629.83,479.857s7.9-4.941,8.931-1.908-1.66,3.48-1.66,3.48Z" transform="translate(-487.461 -380.171)"/><path class="e" d="M629.83,479.857s7.9-4.941,8.931-1.908-1.66,3.48-1.66,3.48Z" transform="translate(-487.461 -380.171)"/><path class="d" d="M638.332,486.708s-1.665,2.948-9.332-3.758l.106-.137.318-.41s9.923-4.561,10.181-.106a8.6,8.6,0,0,1-.186,1.724.9.9,0,0,1-.157.341l-.036.034a1.221,1.221,0,0,1-.021.188C639.155,485.059,638.946,486.293,638.332,486.708Z" transform="translate(-486.845 -382.677)"/><path class="b" d="M638.332,493.279s-1.665,2.948-9.332-3.758l.106-.137.178-.183,9.977,1.732-.036.034a1.22,1.22,0,0,1-.021.188C639.155,491.629,638.946,492.863,638.332,493.279Z" transform="translate(-486.845 -389.247)"/><path class="b" d="M637.953,490.069l-10.207-1.642-.516-.439.934-.108,9.992,1.619a.741.741,0,0,1-.191.374A1.33,1.33,0,0,1,637.953,490.069Z" transform="translate(-485.532 -388.268)"/><path class="b" d="M637.563,490.911l-10.207-1.634-.516-.436.932-.111,10,1.618a.721.721,0,0,1-.194.374S637.578,490.8,637.563,490.911Z" transform="translate(-485.242 -388.899)"/><path class="h" d="M637.731,490.5l-10.214-1.634-.516-.436.932-.111,10,1.618a.774.774,0,0,1-.194.374A.665.665,0,0,1,637.731,490.5Z" transform="translate(-485.361 -388.595)"/><path class="b" d="M593.927,481.9a1.44,1.44,0,0,0-.627.049l.462-1.864.565.139A6.972,6.972,0,0,1,593.927,481.9Z" transform="translate(-460.36 -382.489)"/><path class="i" d="M573.934,475.381l-5.733-.971a1.562,1.562,0,0,0-1.2.281,1.624,1.624,0,0,0-.741,1.42,1.57,1.57,0,0,0,1.366,1.412l5.749.816S574.409,475.806,573.934,475.381Z" transform="translate(-440.298 -378.257)"/><path class="b" d="M532.33,473.9l1.724-.062L541.486,475a.41.41,0,0,1,.341.483h0a.41.41,0,0,1-.467.325l-7.566-1.216Z" transform="translate(-415.129 -377.852)"/><path class="j" d="M531.92,473.709l1.722-.059,7.434,1.162a.411.411,0,0,1,.338.478h0a.41.41,0,0,1-.465.328l-7.569-1.218Z" transform="translate(-414.825 -377.711)"/><path class="k" d="M619.826,511.285l-11.252,13.663s-.5-.576-1.332-1.562c-4.672-5.48-20.047-23.63-20.047-25.168,0-1.807-7.876-9.437-7.876-9.437s-7.073-5.937-3.216-24.44,13.02,17.687,12.7,20.1,5.142,8.841,5.142,8.841,6.913,3.376,10.449,7.073c2.488,2.6,9.115,6.954,12.822,9.293C618.78,510.647,619.826,511.285,619.826,511.285Z" transform="translate(-446.749 -366.913)"/><path class="b" d="M712.624,656.6l-11.252,13.663s-.5-.576-1.332-1.562c.181-3.826,8.26-12.267,9.69-13.55a1.035,1.035,0,0,1,.284-.181C711.579,655.961,712.624,656.6,712.624,656.6Z" transform="translate(-539.547 -512.226)"/><path class="l" d="M720.213,659.524s-5.145-4.822-6.75-3.374-11.735,12.055-9.324,14.789,16.877,14.141,16.877,14.141Z" transform="translate(-542.314 -512.901)"/><path class="b" d="M720.213,659.524s-5.145-4.822-6.75-3.374-11.735,12.055-9.324,14.789,16.877,14.141,16.877,14.141Z" transform="translate(-542.314 -512.901)"/><path class="k" d="M814.923,423.9s-5.021,4.845-11.309,10.1l-.237.2-.367.3h0c-10.031,8.3-22.959,17.249-24.291,9.587a10.653,10.653,0,0,1-.018-3.018c.016-.147.036-.3.057-.454s.041-.3.057-.447a50.634,50.634,0,0,0,.416-5.821v-.976a57.048,57.048,0,0,0-4.13-20.788c-.155-.392-.312-.774-.465-1.138h0a45.171,45.171,0,0,0-4.086-7.8s2.987-1.807,7.127-4.13c1.52-.847,3.193-1.758,4.933-2.672,9.551-5.008,21.035-10.016,19.445-4.13-.751,2.785-.054,6.482,1.329,10.351.077.214.155.423.235.635a63.618,63.618,0,0,0,3.1,6.838l.077.15c1.66,3.18,3.449,6.151,4.93,8.462.356.558.694,1.079,1.009,1.549C814.033,422.685,814.923,423.9,814.923,423.9Z" transform="translate(-591.856 -315.694)"/><path class="b" d="M803.7,403.7c-.075.111-.155.222-.235.33a16.8,16.8,0,0,1-8.518,6.329,27.769,27.769,0,0,1-7.685,1.234c-.71.026-1.435.039-2.184.039a43.685,43.685,0,0,1-5.163-.3,5.159,5.159,0,0,0-2.754.909,2.555,2.555,0,0,1-1.962.341c-.155-.392-.312-.774-.465-1.138h0a45.168,45.168,0,0,0-4.086-7.8s2.987-1.807,7.127-4.13c1.52-.847,3.193-1.758,4.933-2.672,9.551-5.008,21.035-10.016,19.445-4.13-.751,2.785-.054,6.482,1.329,10.351C803.544,403.279,803.622,403.488,803.7,403.7Z" transform="translate(-591.93 -315.694)"/><path class="k" d="M774.773,313.233c0,.377,0,.749-.026,1.12a24.613,24.613,0,0,1-28.5,23.193,23.615,23.615,0,0,1-2.581-.552,24.232,24.232,0,0,1-2.427-.8h0a24.642,24.642,0,0,1-12.574-35l.217-.379a24.626,24.626,0,0,1,45.889,12.419Z" transform="translate(-558.456 -240.437)"/><path class="b" d="M838.067,506.184S799.006,543.957,801.9,522.9a52.178,52.178,0,0,0,.48-7.243,63.717,63.717,0,0,1,4.313-4.812l5.488-3.967A30.734,30.734,0,0,1,831.738,501a14.2,14.2,0,0,1,3.129.431C836.707,504.318,838.067,506.184,838.067,506.184Z" transform="translate(-615 -397.979)"/><path class="l" d="M832.084,573.837c-1.43.426-2.894.8-4.37,1.118-.728.163-1.461.312-2.194.452-1.247.24-2.5.454-3.743.651-6.231.978-12.52,1.613-18.844,2.065l-1.033.07-.635.041c-.965.065-1.931.121-2.894.176-3.859.217-7.723.374-11.588.516-2.839.1-5.651.181-8.474.258l-5.744.168-1.484.044-.651.018q-2.55.077-5.106.147l-1.977.057-3.673.1-.774.021c-.207-1.822-.586-5.134-.989-8.441h0l-.093-.774c-.444-3.648-.9-7.15-1.169-8.477-.643-3.214,0-16.557,0-16.557l.07-.111h0l.3-.516c1.521-2.538,7.158-12.249,7.019-16.423-.083-2.491,2.323-6.095,4.646-9,.3-.377.607-.743.9-1.092,1.851-2.176,3.436-3.725,3.436-3.725l5.485-3.97a30.772,30.772,0,0,1,19.559-5.87c2.065.106,3.712.395,4.13,1.017h0a35.812,35.812,0,0,1,8.568,7.525,45.266,45.266,0,0,1,5.545,8.116c.046.083.093.168.137.258,0,0,9.967,16.557,11.252,26.523s3.216,18.162,3.216,18.162S831.469,569.532,832.084,573.837Z" transform="translate(-581.331 -400.784)"/><path class="b" d="M815.527,600.85c-.875,1.422-.036,8.671.9,13.3-.965.065-1.931.121-2.894.176-3.859.217-7.723.374-11.588.516-2.84.1-5.651.181-8.475.258l-5.744.168-1.484.044-.651.018c.3-1.092.361-2.233-.441-2.741-1.768-1.125-5.145-8.361-5.145-8.361s-2.891.645-3.214-22.974a34.126,34.126,0,0,1,1.438-10.7,26.349,26.349,0,0,1,1.216-3.185h0a24.89,24.89,0,0,1,3.991-6.167h0a25.6,25.6,0,0,1,12.478-7.744,20.74,20.74,0,0,1,3.658-.279h.031a18.959,18.959,0,0,1,8.389,2.065,21.85,21.85,0,0,1,3.178,1.939,25.464,25.464,0,0,1,2.664,2.277,29.165,29.165,0,0,1,5.578,33.769C817.633,596.841,816.025,600.04,815.527,600.85Z" transform="translate(-596.476 -436.707)"/><path class="b" d="M823.01,605.782c-.792,1.291-.181,7.334.632,11.9l-1.033.07-.635.041c-.965.065-1.931.121-2.894.176-3.859.217-7.723.374-11.588.516-2.839.1-5.651.181-8.475.258l-5.743.168a1.542,1.542,0,0,0-.648-1.394,4.005,4.005,0,0,1-.857-.839c-.075-.09-.152-.189-.23-.289a53.513,53.513,0,0,1-4.055-7.228s-2.894.643-3.216-22.974c-.1-7.7,1.89-13.33,4.623-17.427a25.637,25.637,0,0,1,14.5-10.382,19.564,19.564,0,0,1,9.783.8,19.876,19.876,0,0,1,3.542,1.65,24.543,24.543,0,0,1,4.19,3.178l.413.4a29.165,29.165,0,0,1,5.576,33.769C825.116,601.773,823.508,604.972,823.01,605.782Z" transform="translate(-602.03 -440.354)"/><path class="l" d="M818.037,600.8c-.872,1.42-.041,8.629.888,13.255l-.635.041q-1.448.1-2.894.176c-3.859.217-7.723.374-11.588.516-2.839.1-5.651.181-8.475.258l-5.743.168-1.484.044a3.159,3.159,0,0,0-.021-2.277,1.244,1.244,0,0,0-.23-.289,1.009,1.009,0,0,0-.2-.157c-1.768-1.125-5.145-8.361-5.145-8.361s-2.891.645-3.214-22.974c-.119-8.844,2.53-14.972,5.891-19.159a25.644,25.644,0,0,1,13.237-8.65,20.992,20.992,0,0,1,3.015-.279h.031a19,19,0,0,1,8.627,1.859,23.452,23.452,0,0,1,6.249,4.445c.3.292.594.588.875.89a29.221,29.221,0,0,1,4.7,32.879C820.144,596.8,818.535,599.994,818.037,600.8Z" transform="translate(-598.343 -436.661)"/><path class="b" d="M810.415,676.39S794.552,687.647,795.9,689.2,810.415,676.39,810.415,676.39Z" transform="translate(-610.605 -528.117)"/><path class="b" d="M925.314,683.2s-4.956-4.414-4.6-2.7S925.314,683.2,925.314,683.2Z" transform="translate(-703.245 -530.871)"/><path class="b" d="M847.063,785.233c-3.859.217-7.723.374-11.588.516-6.616-.774-13.5-1.913-13.5-1.913C822.576,783.488,843.684,783.068,847.063,785.233Z" transform="translate(-630.01 -607.618)"/><path class="b" d="M1025.314,753.314c-.728.163-1.461.312-2.194.452-.286-4.618-.4-8.6-.4-8.6A81.968,81.968,0,0,1,1025.314,753.314Z" transform="translate(-778.932 -579.142)"/><path class="b" d="M774.705,758.4l-1.977.057c-1.575-4.3-2.927-9.4-3.48-11.567-.17-.669-.258-1.058-.258-1.058l.245.516C770.048,748.042,772.743,753.7,774.705,758.4Z" transform="translate(-590.699 -579.632)"/><path class="b" d="M782.822,322.057a24.455,24.455,0,0,1-3.16,5.78c.077.214.155.423.235.635a63.606,63.606,0,0,0,3.1,6.838l.077.15c.134,1.033.32,2.065.534,3.072q-5.886.31-11.784.271a16.894,16.894,0,0,1-5.072-.56,8.771,8.771,0,0,1-1.92-.872,9.657,9.657,0,0,1-1.368-1,11.616,11.616,0,0,1-3.764-7.4c-.235-2.217.1-4.515-.542-6.65a7.271,7.271,0,0,0-.258-.7,7.713,7.713,0,0,0-6.02-4.579,1.649,1.649,0,0,0-1.12.152,1.872,1.872,0,0,0-.607.94l-2.661,6.941c-1.895.475-3.232-2-3.074-3.947s1.033-3.939.385-5.782c-.2-.57-.537-1.089-.681-1.673-.576-2.3,1.9-4.342,1.918-6.712.015-1.949-1.652-3.524-3.423-4.334-1.624-.743-3.418-1.063-5.044-1.789a24.626,24.626,0,0,1,45.878,12.427c0,.377,0,.749-.026,1.12A24.472,24.472,0,0,1,782.822,322.057Z" transform="translate(-568.131 -240.465)"/><path class="m" d="M757.346,259.128c-1.644-.165-3.451-.206-4.783.774-1.4,1.033-1.864,2.881-2.793,4.35-1.774,2.809-5.119,4.091-7.943,5.839s-5.5,4.868-4.553,8.054c1.74.878,3.714,1.185,5.485,2s3.438,2.385,3.423,4.334c-.021,2.37-2.494,4.412-1.918,6.711.145.583.483,1.1.682,1.673.643,1.843-.227,3.836-.385,5.782s1.18,4.422,3.074,3.947l2.68-6.941a1.871,1.871,0,0,1,.607-.94,1.649,1.649,0,0,1,1.12-.152,7.685,7.685,0,0,1,6.257,5.279c.643,2.135.307,4.432.542,6.65.431,4.089,3.134,8.044,7.057,9.275a17.033,17.033,0,0,0,5.072.56q5.893.044,11.784-.271c-.968-4.554-1.363-9.585.984-13.6,1-1.719,2.452-3.136,3.557-4.794a25.458,25.458,0,0,0,3.291-9.1,24.379,24.379,0,0,0,.71-7.321c-.38-4.107-2.561-7.8-4.688-11.33a14.854,14.854,0,0,0-4.1-4.985c-3.753-2.5-8.353-.932-12.365-2.367C765.88,261.028,761.985,259.6,757.346,259.128Z" transform="translate(-567.026 -218.498)"/><g class="n" transform="translate(170.055 57.36)"><path d="M765.51,381a5.317,5.317,0,0,0-.168-2.46c-.181-.516-.472-.994-.635-1.515a3.245,3.245,0,0,0-.044,1.65c.145.583.483,1.1.679,1.673A3.975,3.975,0,0,1,765.51,381Z" transform="translate(-757.48 -363.385)"/><path d="M746.062,331.869a3.944,3.944,0,0,0,.119-.9c.016-1.946-1.649-3.524-3.42-4.334s-3.746-1.118-5.485-2q-.064-.215-.106-.436a4.737,4.737,0,0,0,.106,2.243c1.74.878,3.715,1.185,5.485,2A5.784,5.784,0,0,1,746.062,331.869Z" transform="translate(-737.082 -324.2)"/><path d="M792.452,411.115a16.887,16.887,0,0,1-5.07-.56c-3.924-1.231-6.626-5.186-7.057-9.275-.235-2.217.1-4.512-.542-6.65a7.684,7.684,0,0,0-6.267-5.279,1.649,1.649,0,0,0-1.12.152,1.853,1.853,0,0,0-.607.94l-2.661,6.941c-1.523.382-2.685-1.141-3-2.765-.028.209-.057.418-.072.625-.16,1.946,1.18,4.422,3.074,3.947l2.679-6.941a1.854,1.854,0,0,1,.607-.94,1.65,1.65,0,0,1,1.12-.152,7.685,7.685,0,0,1,6.257,5.279c.643,2.137.307,4.432.542,6.65.431,4.089,3.134,8.043,7.057,9.275a17.025,17.025,0,0,0,5.07.56q5.9.044,11.786-.258c-.124-.591-.24-1.19-.343-1.791Q798.18,411.153,792.452,411.115Z" transform="translate(-758.565 -372.505)"/><path d="M919.667,351.8a25.6,25.6,0,0,1-3.291,9.1c-1.1,1.657-2.553,3.074-3.557,4.794a14.738,14.738,0,0,0-1.724,8.162,13.6,13.6,0,0,1,1.724-6.355c1-1.719,2.452-3.136,3.557-4.794a25.505,25.505,0,0,0,3.291-9.1,26.255,26.255,0,0,0,.749-6.817,33.363,33.363,0,0,1-.749,5.01Z" transform="translate(-866.161 -340.959)"/></g></svg>