<svg xmlns="http://www.w3.org/2000/svg" width="20.554" height="20.554" viewBox="0 0 20.554 20.554">
<defs><style>.a{fill:#00c45b;}</style></defs>
<path class="a" d="M5.284,3H21.27a2.284,2.284,0,0,1,2.284,2.284V21.27a2.284,2.284,0,0,1-2.284,2.284H5.284A2.284,2.284,0,0,1,3,21.27V5.284A2.284,2.284,0,0,1,5.284,3M19.8,10.228a5.452,5.452,0,0,0,1.473-1.61,5.039,5.039,0,0,1-1.644.468A3.332,3.332,0,0,0,20.9,7.408a6.416,6.416,0,0,1-1.953.731c-1.77-2.135-6.006-.4-5.253,2.8A8.736,8.736,0,0,1,7.4,7.75a3.281,3.281,0,0,0,.9,4.088A3.354,3.354,0,0,1,7,11.461a3.065,3.065,0,0,0,2.375,3.06,3.821,3.821,0,0,1-1.3.034A3.05,3.05,0,0,0,10.879,16.7a6.144,6.144,0,0,1-4.453,1.233,8,8,0,0,0,4.887,1.4C16.349,19.112,19.717,15.5,19.8,10.228Z" transform="translate(-3 -3)"/>
</svg>