<svg xmlns="http://www.w3.org/2000/svg" width="21.736" height="24" viewBox="0 0 21.736 24"><path d="M21.3,3.285H16.522a3.435,3.435,0,0,0-6.452,0H5.288A2.288,2.288,0,0,0,3,5.573V21.589a2.288,2.288,0,0,0,2.288,2.288h11.44V21.589H5.288V5.573H7.576V7.861h11.44V5.573H21.3v10.3h2.288V5.573A2.288,2.288,0,0,0,21.3,3.285M13.3,5.573A1.144,1.144,0,1,1,14.44,4.429,1.144,1.144,0,0,1,13.3,5.573m5.72,12.584v6.864l5.72-3.432-5.72-3.432m0-5.72H7.576V10.149h11.44v2.288m-2.288,4.576H7.576V14.725h9.152Z" transform="translate(-3 -1.021)" fill="#fff"/></svg>